<svg width="114" height="169"  fill="none" xmlns="http://www.w3.org/2000/svg">
<g clip-path="url(#clip0)">
<path d="M31.2956 2.45208C25.8956 5.55208 23.4956 8.15208 21.0456 13.6021C19.5956 16.7521 18.5456 17.8521 16.4956 18.1021C13.7956 18.4021 12.3456 22.2521 14.4456 23.5521C14.9456 23.8521 14.3456 25.2021 13.0956 26.5021C11.5956 28.1021 10.8956 30.0021 10.9956 32.4021C11.0956 35.3021 10.7956 35.9021 9.04565 35.9021C7.39565 35.9021 7.09565 36.3521 7.54565 38.1021C7.94565 39.6021 7.44565 41.1021 6.09565 42.5521C4.04565 44.7021 3.24565 47.1021 0.795646 57.9021C-1.05435 65.9021 0.545646 94.0521 3.29565 103.202C5.19565 109.452 5.24565 110.202 3.79565 111.802C-1.05435 117.152 2.34565 126.652 8.69565 125.452L11.9456 124.852L13.7456 131.402C14.6956 134.952 16.0956 138.402 16.8456 139.002C17.5956 139.652 18.1956 140.702 18.1956 141.302C18.1956 143.502 25.9456 154.352 30.8456 159.052C40.2956 168.152 56.7456 171.152 67.4956 165.802C84.1456 157.452 94.9956 144.152 98.5956 127.702C99.1456 125.302 99.5456 125.102 102.496 125.552C106.396 126.202 108.046 124.652 108.846 119.752C109.546 115.352 106.046 110.502 102.946 111.502C101.246 112.002 101.046 111.802 101.696 110.252C102.146 109.252 103.146 105.502 103.896 101.952C105.746 93.3521 106.296 93.1521 105.546 101.252C104.796 109.002 105.346 109.452 108.346 103.652C110.296 99.7521 110.496 97.7521 110.696 79.2021C110.796 66.5021 111.246 58.5021 111.946 57.7021C114.346 54.8021 112.746 33.8521 110.246 35.4021C109.796 35.6521 108.896 34.4021 108.196 32.6521C105.846 26.3021 104.996 25.2521 101.546 24.0021C99.1456 23.1021 97.6956 21.8021 97.0456 19.8521C96.4956 18.2521 95.0456 16.7021 93.8456 16.3521C92.6456 16.0021 89.8456 13.9021 87.5956 11.7521C76.1956 0.752082 38.8956 -2.19792 29.0456 7.15208C25.6456 10.3021 23.5956 11.5521 25.1956 9.40208C28.7456 4.70208 32.8456 2.25208 39.5456 0.952082L43.6956 0.102082L39.6956 0.00208184C37.0956 -0.0479182 34.1456 0.802082 31.2956 2.45208ZM64.9956 10.5521L67.2456 11.1521L64.5956 12.5521C61.2956 14.2521 59.2456 14.3021 61.5456 12.6021C63.1456 11.4521 63.0456 11.3021 60.5956 11.1021C59.0956 11.0021 57.6456 10.6521 57.3456 10.4021C56.6456 9.70208 62.2456 9.80208 64.9956 10.5521ZM75.4456 13.5521C77.4956 13.9021 78.8956 14.5521 78.5956 15.0521C77.8456 16.3021 73.1956 16.1021 73.1956 14.7521C73.1956 14.0021 71.8956 13.8521 69.1956 14.3021C66.7456 14.7021 65.1956 14.5521 65.1956 13.9021C65.1956 12.8021 69.7956 12.6021 75.4456 13.5521ZM88.0456 22.7021C94.0956 25.5521 97.4456 29.5021 95.0956 31.0021C94.1456 31.6021 93.1956 31.3521 92.1956 30.1521C91.3956 29.2021 88.7956 27.1521 86.4456 25.6521C84.0956 24.1021 82.1956 22.5021 82.1956 22.0521C82.1956 21.6021 81.1956 20.7021 79.9456 20.0521C75.4956 17.7521 82.2956 20.0021 88.0456 22.7021ZM65.6956 24.1021C75.9956 26.2021 81.2956 30.5521 86.7456 41.4021C88.6956 45.2521 91.8456 49.8521 93.7456 51.6021C98.0456 55.5521 100.646 61.5021 101.646 69.3521L102.396 75.3521L98.7456 70.8521C92.1456 62.7521 91.0956 61.9021 87.8456 61.8521C86.0956 61.8021 80.8956 61.7021 76.1956 61.5521C64.9956 61.2521 59.7456 65.6521 66.0456 70.1021C67.7956 71.3521 67.7956 71.5021 66.0456 74.4021C64.3956 77.1021 64.1956 77.2021 64.1956 75.2021C64.1956 72.5021 58.0456 70.4521 52.9456 71.4021C49.6956 72.0021 49.6956 72.0021 49.5456 67.8521C49.3456 61.0021 47.9956 60.4021 34.4456 60.7521L22.7456 61.1021L17.9456 65.1521C15.2956 67.3521 12.4456 70.4521 11.6456 72.0521C8.24565 78.5521 7.04565 69.7521 10.1456 61.5021C10.7456 60.0021 11.1956 57.7521 11.1956 56.4521C11.1956 55.2021 12.2956 52.6021 13.5956 50.6521C14.8956 48.7021 16.2956 45.8021 16.6456 44.2021C17.9956 37.9521 24.6456 32.1021 38.1956 25.1521C45.1956 21.5521 52.0956 21.3021 65.6956 24.1021ZM92.3456 34.1521C98.2456 42.1521 99.9456 45.3021 97.9456 44.6521C97.2456 44.4521 96.0456 42.9521 95.2956 41.3521C93.3456 37.3021 88.5456 30.8521 87.9956 31.4521C87.7456 31.7021 86.9956 30.8021 86.3956 29.4021C84.2456 24.6521 87.0456 26.9021 92.3456 34.1521ZM97.6956 35.5521C102.496 41.9021 104.546 46.1021 102.646 45.7521C101.646 45.5521 100.446 44.0521 99.8956 42.4021C99.3956 40.7521 97.8456 37.9521 96.4956 36.1521C95.1956 34.3521 94.4456 32.9021 94.8956 32.9021C95.3456 32.9021 96.5956 34.1021 97.6956 35.5521ZM22.0456 68.8521C20.7456 69.9521 20.0456 70.8521 20.4956 70.8521C20.8956 70.9021 20.7956 71.9021 20.1456 73.1521C19.1956 75.2021 19.2956 75.1521 21.4456 72.8021C26.5456 67.2521 40.8956 67.7021 44.6956 73.5521C46.5456 76.4021 47.3956 82.6521 46.0456 83.5021C45.5956 83.8021 45.1956 85.2521 45.1956 86.7521C45.1956 92.0521 36.9956 97.9521 29.3956 98.1021C14.5956 98.4521 4.84565 79.4021 15.2456 70.4021C16.5456 69.3021 17.1456 69.0521 16.6456 69.9021C14.6956 73.0521 13.6956 81.3521 14.6956 85.5521C16.3956 92.5021 16.8456 91.4521 17.4956 79.7521C18.0956 68.3021 18.6456 66.9521 22.5456 66.9021C24.1956 66.9021 24.1456 67.1521 22.0456 68.8521ZM89.6956 71.2521C94.0456 72.5521 94.8456 74.2521 95.0956 82.6521C95.1956 86.1521 97.1956 89.2021 97.1956 85.8521C97.1956 85.3021 98.1956 84.4521 99.4456 83.9521C101.146 83.2521 101.296 83.0021 99.9456 82.9521C98.6956 82.9021 98.1956 82.0521 98.1956 79.9521C98.1956 78.3521 97.7456 75.8021 97.1456 74.2521C96.0956 71.5021 96.0956 71.5021 98.1456 73.3521C102.296 77.1021 102.696 84.3521 99.1956 90.9021C98.2456 92.7021 97.7956 92.9021 97.0956 91.8021C96.4456 90.8021 96.2456 91.1021 96.1956 92.9521C96.1956 97.5021 86.5456 101.602 80.0456 99.8521C73.4956 98.1021 66.1456 90.0521 67.6456 86.2021C67.9456 85.4021 67.8956 84.2021 67.4956 83.5521C61.8956 74.6021 75.5956 67.0021 89.6956 71.2521ZM59.8456 73.5021C62.2956 74.1521 63.9956 78.8021 62.1956 79.9021C61.4456 80.3521 61.8956 83.0021 63.7456 88.5021C66.1456 95.8021 69.1956 101.152 69.1956 98.1021C69.1956 97.3521 70.6456 97.8021 72.9456 99.3021C82.5456 105.552 95.6456 102.202 101.246 92.1021L103.296 88.4021L102.696 94.3521C102.396 97.6521 101.596 100.652 100.896 101.052C100.146 101.552 99.5956 104.702 99.4956 109.302C99.2456 117.402 96.6456 124.152 91.7456 129.452C90.3456 130.952 89.4956 132.552 89.7956 133.052C90.0456 133.502 89.5456 133.902 88.6456 133.902C87.5956 133.902 87.1956 133.352 87.5456 132.402C88.1956 130.702 84.7456 130.252 83.6956 131.902C83.3456 132.452 83.8956 132.902 84.8956 132.902C86.3956 132.952 86.4456 133.102 85.1956 133.852C82.9956 135.252 82.3456 134.002 82.0956 128.202C81.9456 125.052 81.4456 123.252 80.8456 123.602C80.2956 123.952 80.0956 123.552 80.4456 122.652C80.7956 121.752 80.1456 120.252 78.7956 119.002C76.1456 116.502 73.1956 116.052 75.6956 118.502C76.5456 119.402 76.9956 120.402 76.6956 120.752C76.3456 121.052 75.6956 120.752 75.2456 120.002C74.7956 119.252 73.8956 118.952 73.2956 119.352C71.8956 120.202 71.8956 119.352 73.2456 116.852C73.9956 115.402 73.9456 114.902 72.9956 114.902C71.3956 114.952 68.2956 116.852 69.7956 116.902C70.3956 116.902 71.3456 118.352 71.8956 120.152C72.4456 121.952 73.3956 123.302 74.0456 123.152C74.6456 123.002 75.1956 123.352 75.1956 123.952C75.1956 126.002 71.9956 126.102 66.4456 124.102C57.5956 120.952 51.6956 120.702 44.8456 123.152C40.1456 124.852 38.8456 125.002 38.1956 123.902C37.0956 122.102 37.8956 120.352 39.9956 120.202C44.1956 119.852 47.0456 118.052 46.4956 115.952C46.1456 114.552 46.5456 113.702 47.8456 113.252C48.8456 112.852 49.9456 112.152 50.2456 111.702C50.7956 110.902 52.3956 113.502 53.5956 117.152C54.5956 120.402 57.8956 119.252 58.6456 115.352C58.9956 113.402 60.0456 111.502 60.8956 111.202C62.6956 110.502 65.2956 113.402 64.5956 115.352C64.2956 116.002 64.7956 117.152 65.6456 117.852C66.5456 118.602 67.1956 118.702 67.1956 118.102C67.1956 117.552 67.4456 116.402 67.7456 115.602C68.0956 114.752 67.2956 113.102 65.9956 111.902C64.6956 110.602 64.3456 109.852 65.1956 110.102C66.6456 110.552 71.1956 105.602 71.1956 103.502C71.1956 102.952 70.5956 103.352 69.8456 104.352C68.5456 106.152 68.3956 106.102 66.3456 104.052C64.2956 102.002 63.9956 101.952 61.1956 103.402C57.9956 105.052 57.1956 106.902 59.6956 106.902C60.5456 106.902 61.1956 107.402 61.1956 107.952C61.1956 108.552 60.7456 108.752 60.1456 108.352C59.5956 108.002 58.4456 108.252 57.6456 108.952C56.4456 109.952 56.1956 109.702 56.1956 107.652C56.1956 105.952 55.5456 104.952 54.1956 104.602C53.0956 104.302 52.1956 103.252 52.1956 102.202C52.1956 98.3021 49.8956 97.6521 48.2456 101.002C46.4956 104.602 44.8456 105.002 44.3956 101.952C43.8956 98.9021 47.9456 93.7521 50.5456 94.1021C52.1956 94.3521 52.6456 93.9521 52.3956 92.4021C51.6456 87.2021 51.7456 85.1021 52.9456 81.5021C54.4456 76.8021 54.4456 76.8521 53.0956 77.1521C50.8456 77.6521 51.0956 74.8521 53.3456 73.9521C56.1956 72.8021 57.0956 72.7521 59.8456 73.5021ZM11.6456 89.8021C16.9956 100.152 30.7956 103.702 40.5956 97.2521C43.8956 95.0521 44.3956 94.9521 43.7456 96.5521C41.9956 100.952 41.8956 105.952 43.6456 107.802C44.7956 109.102 44.9956 109.902 44.1956 110.402C43.5956 110.752 43.3956 111.952 43.7456 113.002C44.1456 114.302 43.8456 114.902 42.7456 114.902C41.8956 114.902 41.1956 115.402 41.1956 115.952C41.1956 116.552 40.7456 116.702 40.1456 116.352C39.4456 115.952 39.5956 114.902 40.6456 113.352C42.1456 111.052 42.1456 111.002 39.9456 111.802C38.6956 112.302 37.7456 113.402 37.8456 114.302C37.9456 115.502 37.6456 115.702 36.7956 115.002C35.5956 114.002 29.3456 116.952 29.0956 118.652C28.4956 122.752 28.5956 125.752 29.2956 125.352C29.7956 125.052 29.8956 125.502 29.5956 126.352C29.2456 127.202 29.4456 127.902 29.9956 127.902C30.5456 127.902 31.1956 127.352 31.4456 126.702C31.6956 125.902 32.4456 126.202 33.6456 127.552C35.1956 129.352 35.9456 129.502 39.4456 128.752C47.6956 126.902 76.1956 129.052 76.1956 131.552C76.1956 132.302 76.8956 132.902 77.7456 132.902C78.5956 132.902 79.0456 133.302 78.7456 133.802C78.4456 134.302 78.9456 134.952 79.7956 135.302C81.0456 135.802 81.1456 136.252 80.2956 137.302C79.4456 138.302 79.4456 139.402 80.3456 141.552C82.6456 147.002 82.3456 148.352 78.5956 149.552C75.1456 150.602 72.5956 149.452 75.7456 148.252C77.2456 147.652 77.2456 147.502 75.7956 146.702C74.6456 146.052 73.5456 146.452 71.9456 148.002C70.1456 149.752 70.0456 150.052 71.4956 149.552C72.4956 149.202 73.0456 149.352 72.7456 149.852C72.3956 150.352 72.5956 151.052 73.1956 151.402C73.7456 151.752 74.1956 152.752 74.1956 153.652C74.1956 154.502 73.9456 154.952 73.5956 154.652C73.2956 154.352 72.1456 154.952 71.0956 156.002C69.0456 158.052 67.1956 158.502 67.1956 156.902C67.1956 156.352 67.8956 155.902 68.6956 155.902C69.5456 155.902 70.1956 155.152 70.1956 154.252C70.1956 152.802 69.8456 152.902 67.8956 154.752C65.1956 157.252 63.7456 157.552 64.5456 155.402C65.2456 153.602 65.2956 153.652 61.5956 154.902C54.0956 157.452 41.3456 155.602 42.6456 152.152C43.0456 151.152 42.6956 151.102 41.1956 151.902C40.0956 152.502 39.1956 152.652 39.1956 152.302C39.1956 151.952 38.4956 152.252 37.6456 152.952C36.2956 154.052 36.1956 153.702 36.7956 150.052C37.2456 147.252 37.0956 145.902 36.3456 145.902C35.6956 145.902 35.1956 145.252 35.1956 144.452C35.1956 143.702 34.3956 142.252 33.4456 141.302C32.4956 140.352 31.7956 139.402 31.9456 139.202C32.7956 138.152 31.9456 135.902 30.6956 135.902C29.8956 135.902 29.1956 136.502 29.1956 137.252C29.1956 137.952 28.5456 138.552 27.7456 138.552C26.7956 138.552 26.3956 137.802 26.5956 136.502C27.0456 133.602 25.0956 129.702 23.4956 130.352C22.7956 130.602 22.1956 130.252 22.1956 129.502C22.1956 128.752 21.4456 127.552 20.4956 126.752C19.0456 125.602 18.8956 125.602 19.5956 126.902C19.9956 127.702 19.5956 127.502 18.7456 126.402C17.8456 125.302 16.8456 123.252 16.4956 121.902C16.1456 120.502 14.9956 118.802 13.8956 118.002C12.3456 116.902 12.0956 115.852 12.4956 112.702C13.1456 108.052 13.9456 106.902 15.2456 108.952C15.9456 110.002 16.1456 109.702 15.9456 107.652C15.8456 105.952 15.2956 105.052 14.5456 105.302C13.7956 105.602 13.0956 104.302 12.6956 101.852C12.2956 99.6021 11.4456 97.9021 10.7456 97.9021C8.84565 97.9021 8.19565 94.5021 8.34565 84.9021C8.44565 76.5021 8.44565 76.4521 9.29565 81.7021C9.79565 84.6021 10.8456 88.2521 11.6456 89.8021ZM9.74565 120.802C7.94565 122.552 7.69565 121.352 8.89565 116.952L9.54565 114.552L10.3956 116.902C10.9956 118.602 10.8456 119.702 9.74565 120.802ZM102.846 122.602C101.746 123.702 100.196 121.652 100.246 119.102L100.296 116.402L101.796 119.252C102.646 120.802 103.146 122.302 102.846 122.602ZM32.2956 144.252C31.6956 145.002 31.4456 145.802 31.7456 146.102C32.0456 146.402 31.3456 146.902 30.2456 147.202C29.0956 147.452 28.4456 147.352 28.6956 146.902C28.9956 146.452 28.5956 145.402 27.7956 144.652C26.5456 143.402 26.8456 143.202 29.8956 143.102C32.6956 143.002 33.1956 143.202 32.2956 144.252ZM61.4956 157.152C61.0956 157.852 60.6956 158.702 60.6956 159.052C60.6956 160.352 59.1956 161.202 59.1956 159.952C59.1956 159.202 58.5456 158.952 57.5956 159.302C56.5956 159.702 56.1956 159.452 56.4456 158.652C56.6956 157.952 57.6456 157.552 58.5456 157.702C59.4456 157.852 60.1956 157.502 60.1956 156.952C60.1956 156.352 60.6956 155.902 61.2456 155.902C61.8456 155.902 61.9956 156.452 61.4956 157.152Z" fill="#E4E3E3"/>
<path d="M25.9457 76.3521C21.8457 79.2021 21.2457 81.4521 23.9457 83.5021C25.3957 84.6021 25.4457 84.8521 24.1957 84.9521C23.3957 85.0521 23.8457 85.4521 25.1957 85.8521C28.1957 86.7021 30.1957 86.1521 30.1957 84.4021C30.1957 83.6021 29.3457 83.2521 27.9457 83.5021C26.6957 83.7521 26.1957 83.7021 26.7957 83.4021C27.3957 83.1021 27.6957 81.7521 27.4457 80.5021C27.1957 79.2021 27.4957 77.8521 28.0957 77.4521C28.6957 77.1021 29.1957 77.4521 29.1957 78.2021C29.1957 80.9021 31.4957 81.7021 34.9957 80.2521C36.7957 79.5021 37.9957 78.4021 37.6957 77.9021C37.3457 77.3521 37.5457 76.9021 38.0957 76.9021C38.6457 76.9021 39.3457 77.3521 39.6957 77.9021C40.0457 78.4521 41.0457 78.9021 41.9957 78.9021C45.9957 78.9021 39.5457 74.8521 34.6457 74.3021C30.4457 73.8521 29.1457 74.1521 25.9457 76.3521Z" fill="#E4E3E3"/>
<path d="M76.2956 75.9521C71.5456 76.6021 68.1456 79.6021 70.4456 81.1021C72.6956 82.5021 74.1956 81.9521 74.2956 79.6521C74.3956 77.8021 74.4956 77.7521 74.8956 79.2521C75.1456 80.3021 74.8956 81.6021 74.2956 82.2021C70.3956 86.1021 81.6956 89.0521 86.9456 85.5521C94.0956 80.8021 86.9956 74.4021 76.2956 75.9521ZM85.9956 81.1021C86.1456 81.9521 85.5456 82.9521 84.5956 83.3021C82.3956 84.1521 82.1456 83.8021 82.8456 81.0521C83.4956 78.6021 85.4956 78.6521 85.9956 81.1021Z" fill="#E4E3E3"/>
<path d="M48.9956 135.452C48.5956 135.802 46.4456 136.102 44.2456 136.102C41.4956 136.052 40.1956 136.452 40.1956 137.352C40.1956 138.902 42.9956 140.352 45.1956 139.952C46.3456 139.752 46.2956 140.152 44.8456 141.752C43.0456 143.752 43.0456 143.802 44.8456 143.752C45.8456 143.752 48.4956 144.202 50.6956 144.752C52.8956 145.302 57.0456 145.602 59.8956 145.452C64.0456 145.152 65.1956 145.402 65.5456 146.752C65.9956 148.452 66.5956 144.652 66.2456 142.152C66.1956 141.452 66.7956 140.602 67.6456 140.302C68.4956 139.952 69.1956 139.352 69.1956 138.902C69.1956 137.302 50.3956 134.052 48.9956 135.452Z" fill="#E4E3E3"/>
</g>
<defs>
<clipPath id="clip0">
<rect width="113.129" height="168.452" fill="white"/>
</clipPath>
</defs>
</svg>
