<svg width="273" height="394" viewBox="0 0 273 394" fill="none" xmlns="http://www.w3.org/2000/svg">
<g filter="url(#filter0_i)">
<mask id="path-1-inside-1" fill="white">
<path d="M76.1526 5.96006C63.1737 13.2056 57.4053 19.2825 51.5167 32.0207C48.0316 39.3831 45.5079 41.9541 40.5807 42.5385C34.0912 43.2397 30.6061 52.2382 35.6535 55.2766C36.8553 55.9778 35.4132 59.1331 32.4088 62.1716C28.8035 65.9112 27.1211 70.3521 27.3614 75.9615C27.6018 82.7397 26.8807 84.142 22.6746 84.142C18.7088 84.142 17.9877 85.1938 19.0693 89.284C20.0307 92.7899 18.829 96.2959 15.5842 99.6849C10.657 104.71 8.73421 110.32 2.84562 135.562C-1.60088 154.26 2.24474 220.055 8.85439 241.441C13.4211 256.049 13.5412 257.802 10.0561 261.541C-1.60088 274.046 6.57106 296.25 21.8333 293.445L29.6447 292.043L33.9711 307.352C36.2544 315.649 39.6193 323.713 41.4219 325.115C43.2246 326.635 44.6667 329.089 44.6667 330.491C44.6667 335.633 63.2939 360.993 75.0711 371.978C97.7842 393.247 137.322 400.259 163.16 387.754C203.178 368.238 229.256 337.152 237.909 298.704C239.231 293.095 240.192 292.627 247.282 293.679C256.656 295.198 260.622 291.575 262.545 280.123C264.227 269.839 255.815 258.503 248.364 260.84C244.278 262.009 243.797 261.541 245.36 257.919C246.441 255.581 248.845 246.817 250.647 238.519C255.094 218.419 256.416 217.951 254.613 236.883C252.811 254.997 254.132 256.049 261.343 242.493C266.03 233.377 266.511 228.703 266.991 185.346C267.232 155.663 268.313 136.965 269.996 135.095C275.764 128.317 271.918 79.3506 265.91 82.9734C264.828 83.5577 262.665 80.6361 260.982 76.5459C255.334 61.7041 253.291 59.25 244.999 56.3284C239.231 54.2249 235.746 51.1864 234.183 46.6287C232.861 42.8891 229.376 39.2663 226.492 38.4482C223.608 37.6302 216.878 32.7219 211.47 27.6968C184.07 1.98669 94.4193 -4.90828 70.7447 16.9453C62.5728 24.3077 57.6456 27.2293 61.4912 22.2041C70.0237 11.2189 79.8781 5.49261 95.9816 2.45415L105.956 0.467452L96.3421 0.233726C90.093 0.116862 83.0026 2.10355 76.1526 5.96006ZM157.151 24.892L162.559 26.2944L156.189 29.5666C148.258 33.5399 143.331 33.6568 148.859 29.6834C152.704 26.9956 152.464 26.645 146.575 26.1775C142.97 25.9438 139.485 25.1257 138.764 24.5414C137.082 22.9053 150.541 23.1391 157.151 24.892ZM182.268 31.9038C187.195 32.7219 190.56 34.2411 189.839 35.4098C188.036 38.3314 176.86 37.8639 176.86 34.7086C176.86 32.9556 173.735 32.605 167.246 33.6568C161.357 34.5917 157.632 34.2411 157.632 32.7219C157.632 30.1509 168.688 29.6834 182.268 31.9038ZM212.552 53.2899C227.093 59.9512 235.145 69.1834 229.496 72.6894C227.213 74.0917 224.93 73.5074 222.526 70.7027C220.604 68.4823 214.354 63.6908 208.706 60.1849C203.058 56.5621 198.491 52.8225 198.491 51.7707C198.491 50.7189 196.088 48.6154 193.083 47.0962C182.388 41.7204 198.732 46.9793 212.552 53.2899ZM158.833 56.5621C183.589 61.4704 196.328 71.6376 209.427 96.997C214.114 105.996 221.685 116.747 226.252 120.837C236.587 130.07 242.836 143.976 245.239 162.324L247.042 176.348L238.269 165.83C222.406 146.898 219.882 144.911 212.071 144.794C207.865 144.678 195.367 144.444 184.07 144.093C157.151 143.392 144.532 153.676 159.675 164.077C163.881 166.999 163.881 167.349 159.675 174.127C155.709 180.438 155.228 180.672 155.228 175.997C155.228 169.686 140.446 164.895 128.189 167.115C120.377 168.518 120.377 168.518 120.017 158.818C119.536 142.808 116.291 141.405 83.7237 142.223L55.6026 143.041L44.0658 152.507C37.6965 157.649 30.8465 164.895 28.9237 168.635C20.7518 183.827 17.8675 163.259 25.3184 143.976C26.7605 140.47 27.8421 135.212 27.8421 132.173C27.8421 129.251 30.486 123.175 33.6105 118.617C36.7351 114.059 40.1 107.281 40.9412 103.541C44.186 88.9334 60.1693 75.2604 92.7368 59.0163C109.561 50.6021 126.146 50.0178 158.833 56.5621ZM222.887 80.0518C237.068 98.75 241.154 106.112 236.346 104.593C234.664 104.126 231.78 100.62 229.977 96.8802C225.29 87.4142 213.754 72.3388 212.432 73.7411C211.831 74.3254 210.028 72.2219 208.586 68.9497C203.418 57.8476 210.148 63.1065 222.887 80.0518ZM235.746 83.324C247.282 98.1657 252.21 107.982 247.643 107.164C245.239 106.697 242.355 103.191 241.033 99.3343C239.832 95.4778 236.106 88.9334 232.861 84.7263C229.737 80.5192 227.934 77.1302 229.016 77.1302C230.097 77.1302 233.102 79.9349 235.746 83.324ZM53.9202 161.155C50.7956 163.726 49.1132 165.83 50.1947 165.83C51.1561 165.947 50.9158 168.284 49.3535 171.206C47.0702 175.997 47.3105 175.88 52.4781 170.388C64.736 157.416 99.2263 158.467 108.36 172.141C112.806 178.802 114.849 193.41 111.604 195.396C110.523 196.098 109.561 199.487 109.561 202.993C109.561 215.38 89.8526 229.17 71.586 229.521C36.014 230.339 12.5798 185.814 37.5763 164.778C40.7009 162.207 42.143 161.623 40.9412 163.609C36.2544 170.972 33.8509 190.371 36.2544 200.188C40.3404 216.432 41.4219 213.978 42.9842 186.632C44.4263 159.87 45.7482 156.714 55.1219 156.598C59.0877 156.598 58.9675 157.182 53.9202 161.155ZM216.518 166.765C226.973 169.803 228.896 173.777 229.496 193.41C229.737 201.59 234.544 208.719 234.544 200.889C234.544 199.604 236.947 197.617 239.952 196.448C244.038 194.812 244.398 194.228 241.154 194.111C238.149 193.994 236.947 192.007 236.947 187.099C236.947 183.359 235.866 177.399 234.424 173.777C231.9 167.349 231.9 167.349 236.827 171.673C246.802 180.438 247.763 197.383 239.351 212.692C237.068 216.899 235.986 217.367 234.304 214.796C232.741 212.459 232.261 213.16 232.14 217.484C232.14 228.118 208.946 237.701 193.324 233.611C177.581 229.521 159.915 210.706 163.52 201.707C164.241 199.837 164.121 197.033 163.16 195.513C149.7 174.595 182.628 156.831 216.518 166.765ZM144.773 172.024C150.661 173.543 154.747 184.411 150.421 186.982C148.618 188.034 149.7 194.228 154.146 207.083C159.915 224.145 167.246 236.649 167.246 229.521C167.246 227.768 170.731 228.82 176.259 232.325C199.332 246.933 230.818 239.104 244.278 215.497L249.205 206.849L247.763 220.756C247.042 228.469 245.119 235.481 243.437 236.416C241.634 237.584 240.312 244.947 240.072 255.698C239.471 274.63 233.222 290.407 221.445 302.794C218.08 306.3 216.037 310.04 216.758 311.209C217.359 312.26 216.157 313.195 213.994 313.195C211.47 313.195 210.509 311.91 211.35 309.689C212.912 305.716 204.62 304.664 202.096 308.521C201.255 309.806 202.577 310.858 204.981 310.858C208.586 310.975 208.706 311.325 205.702 313.078C200.414 316.351 198.852 313.429 198.251 299.873C197.89 292.51 196.689 288.303 195.246 289.121C193.925 289.939 193.444 289.004 194.285 286.901C195.126 284.797 193.564 281.291 190.319 278.37C183.95 272.527 176.86 271.475 182.868 277.201C184.911 279.305 185.993 281.642 185.272 282.46C184.431 283.161 182.868 282.46 181.787 280.707C180.705 278.954 178.542 278.253 177.1 279.188C173.735 281.175 173.735 279.188 176.98 273.345C178.782 269.956 178.662 268.787 176.379 268.787C172.533 268.904 165.082 273.345 168.688 273.462C170.13 273.462 172.413 276.851 173.735 281.058C175.057 285.265 177.34 288.42 178.903 288.07C180.345 287.719 181.667 288.537 181.667 289.939C181.667 294.731 173.975 294.964 160.636 290.29C139.365 282.928 125.184 282.343 108.72 288.07C97.4237 292.043 94.2991 292.393 92.7368 289.822C90.093 285.615 92.0158 281.525 97.0632 281.175C107.158 280.357 114.008 276.149 112.686 271.241C111.845 267.969 112.806 265.982 115.931 264.93C118.334 263.996 120.978 262.359 121.699 261.308C123.021 259.438 126.867 265.515 129.751 274.046C132.154 281.642 140.086 278.954 141.889 269.839C142.73 265.281 145.254 260.84 147.296 260.139C151.623 258.503 157.872 265.281 156.189 269.839C155.468 271.358 156.67 274.046 158.713 275.682C160.876 277.435 162.439 277.669 162.439 276.266C162.439 274.981 163.039 272.293 163.761 270.423C164.602 268.436 162.679 264.58 159.554 261.775C156.43 258.737 155.589 256.984 157.632 257.568C161.117 258.62 172.053 247.05 172.053 242.142C172.053 240.857 170.611 241.791 168.808 244.129C165.683 248.336 165.323 248.219 160.396 243.428C155.468 238.636 154.747 238.519 148.018 241.908C140.326 245.765 138.404 250.089 144.412 250.089C146.455 250.089 148.018 251.257 148.018 252.543C148.018 253.945 146.936 254.413 145.494 253.478C144.172 252.66 141.408 253.244 139.485 254.88C136.601 257.217 136 256.633 136 251.842C136 247.868 134.438 245.531 131.193 244.713C128.549 244.012 126.386 241.558 126.386 239.104C126.386 229.988 120.858 228.469 116.892 236.299C112.686 244.713 108.72 245.648 107.639 238.519C106.437 231.391 116.171 219.354 122.42 220.172C126.386 220.756 127.468 219.821 126.867 216.198C125.064 204.044 125.304 199.136 128.189 190.722C131.794 179.737 131.794 179.854 128.549 180.555C123.141 181.723 123.742 175.179 129.15 173.075C136 170.388 138.163 170.271 144.773 172.024ZM28.9237 210.121C41.7825 234.312 74.9509 242.609 98.5053 227.534C106.437 222.392 107.639 222.158 106.076 225.898C101.87 236.182 101.63 247.868 105.836 252.192C108.6 255.231 109.081 257.101 107.158 258.269C105.716 259.087 105.235 261.892 106.076 264.346C107.038 267.385 106.317 268.787 103.673 268.787C101.63 268.787 99.9474 269.956 99.9474 271.241C99.9474 272.643 98.8658 272.994 97.4237 272.176C95.7412 271.241 96.1018 268.787 98.6254 265.164C102.231 259.788 102.231 259.672 96.943 261.541C93.9386 262.71 91.6553 265.281 91.8956 267.385C92.136 270.189 91.4149 270.657 89.3719 269.021C86.4877 266.683 71.4658 273.578 70.8649 277.552C69.4228 287.135 69.6632 294.146 71.3456 293.212C72.5474 292.51 72.7877 293.562 72.0667 295.549C71.2254 297.535 71.7061 299.172 73.0281 299.172C74.35 299.172 75.9123 297.886 76.5132 296.367C77.114 294.497 78.9167 295.198 81.8009 298.354C85.5263 302.561 87.329 302.911 95.7412 301.158C115.57 296.834 184.07 301.859 184.07 307.703C184.07 309.456 185.753 310.858 187.796 310.858C189.839 310.858 190.92 311.793 190.199 312.962C189.478 314.13 190.68 315.649 192.723 316.467C195.727 317.636 195.968 318.688 193.925 321.142C191.882 323.479 191.882 326.05 194.045 331.075C199.573 343.814 198.852 346.969 189.839 349.774C181.546 352.228 175.418 349.54 182.989 346.735C186.594 345.333 186.594 344.982 183.109 343.112C180.345 341.593 177.701 342.528 173.855 346.151C169.529 350.241 169.289 350.942 172.774 349.774C175.177 348.956 176.499 349.306 175.778 350.475C174.937 351.643 175.418 353.28 176.86 354.098C178.182 354.916 179.263 357.253 179.263 359.357C179.263 361.343 178.662 362.395 177.821 361.694C177.1 360.993 174.336 362.395 171.812 364.849C166.885 369.641 162.439 370.692 162.439 366.953C162.439 365.667 164.121 364.615 166.044 364.615C168.087 364.615 169.649 362.862 169.649 360.759C169.649 357.37 168.808 357.604 164.121 361.928C157.632 367.771 154.146 368.472 156.069 363.447C157.752 359.24 157.872 359.357 148.979 362.278C130.953 368.238 100.308 363.914 103.432 355.851C104.394 353.513 103.553 353.396 99.9474 355.266C97.3035 356.669 95.1404 357.019 95.1404 356.201C95.1404 355.383 93.4579 356.084 91.4149 357.72C88.1702 360.291 87.9298 359.473 89.3719 350.942C90.4535 344.398 90.093 341.243 88.2904 341.243C86.7281 341.243 85.5263 339.723 85.5263 337.854C85.5263 336.101 83.6035 332.712 81.3202 330.491C79.0368 328.271 77.3544 326.05 77.7149 325.583C79.7579 323.129 77.7149 317.87 74.7105 317.87C72.7877 317.87 71.1053 319.272 71.1053 321.025C71.1053 322.661 69.543 324.064 67.6202 324.064C65.3368 324.064 64.3754 322.311 64.8561 319.272C65.9377 312.494 61.2509 303.379 57.4053 304.898C55.7228 305.482 54.2807 304.664 54.2807 302.911C54.2807 301.158 52.4781 298.354 50.1947 296.484C46.7096 293.796 46.3491 293.796 48.0316 296.834C48.993 298.704 48.0316 298.237 45.9886 295.666C43.8254 293.095 41.4219 288.303 40.5807 285.148C39.7395 281.876 36.9754 277.902 34.3316 276.033C30.6061 273.462 30.0053 271.007 30.9667 263.645C32.529 252.777 34.4518 250.089 37.5763 254.88C39.2588 257.334 39.7395 256.633 39.2588 251.842C39.0184 247.868 37.6965 245.765 35.8939 246.349C34.0912 247.05 32.4088 244.012 31.4474 238.285C30.486 233.027 28.443 229.053 26.7605 229.053C22.1939 229.053 20.6316 221.107 20.9921 198.669C21.2325 179.036 21.2325 178.919 23.2754 191.189C24.4772 197.967 27.0009 206.499 28.9237 210.121ZM24.357 282.577C20.0307 286.667 19.4298 283.862 22.314 273.578L23.8763 267.969L25.9193 273.462C27.3614 277.435 27.0009 280.006 24.357 282.577ZM248.124 286.784C245.48 289.355 241.754 284.564 241.875 278.604L241.995 272.293L245.6 278.954C247.643 282.577 248.845 286.083 248.124 286.784ZM78.5561 337.386C77.114 339.139 76.5132 341.009 77.2342 341.71C77.9553 342.411 76.2728 343.58 73.6289 344.281C70.8649 344.865 69.3026 344.632 69.9035 343.58C70.6246 342.528 69.6632 340.074 67.7404 338.321C64.736 335.399 65.457 334.932 72.7877 334.698C79.5175 334.464 80.7193 334.932 78.5561 337.386ZM148.739 367.537C147.777 369.173 146.816 371.16 146.816 371.978C146.816 375.016 143.211 377.003 143.211 374.081C143.211 372.328 141.648 371.744 139.365 372.562C136.961 373.497 136 372.913 136.601 371.043C137.202 369.407 139.485 368.472 141.648 368.822C143.811 369.173 145.614 368.355 145.614 367.07C145.614 365.667 146.816 364.615 148.138 364.615C149.58 364.615 149.94 365.901 148.739 367.537Z"/>
</mask>
<path d="M76.1526 5.96006C63.1737 13.2056 57.4053 19.2825 51.5167 32.0207C48.0316 39.3831 45.5079 41.9541 40.5807 42.5385C34.0912 43.2397 30.6061 52.2382 35.6535 55.2766C36.8553 55.9778 35.4132 59.1331 32.4088 62.1716C28.8035 65.9112 27.1211 70.3521 27.3614 75.9615C27.6018 82.7397 26.8807 84.142 22.6746 84.142C18.7088 84.142 17.9877 85.1938 19.0693 89.284C20.0307 92.7899 18.829 96.2959 15.5842 99.6849C10.657 104.71 8.73421 110.32 2.84562 135.562C-1.60088 154.26 2.24474 220.055 8.85439 241.441C13.4211 256.049 13.5412 257.802 10.0561 261.541C-1.60088 274.046 6.57106 296.25 21.8333 293.445L29.6447 292.043L33.9711 307.352C36.2544 315.649 39.6193 323.713 41.4219 325.115C43.2246 326.635 44.6667 329.089 44.6667 330.491C44.6667 335.633 63.2939 360.993 75.0711 371.978C97.7842 393.247 137.322 400.259 163.16 387.754C203.178 368.238 229.256 337.152 237.909 298.704C239.231 293.095 240.192 292.627 247.282 293.679C256.656 295.198 260.622 291.575 262.545 280.123C264.227 269.839 255.815 258.503 248.364 260.84C244.278 262.009 243.797 261.541 245.36 257.919C246.441 255.581 248.845 246.817 250.647 238.519C255.094 218.419 256.416 217.951 254.613 236.883C252.811 254.997 254.132 256.049 261.343 242.493C266.03 233.377 266.511 228.703 266.991 185.346C267.232 155.663 268.313 136.965 269.996 135.095C275.764 128.317 271.918 79.3506 265.91 82.9734C264.828 83.5577 262.665 80.6361 260.982 76.5459C255.334 61.7041 253.291 59.25 244.999 56.3284C239.231 54.2249 235.746 51.1864 234.183 46.6287C232.861 42.8891 229.376 39.2663 226.492 38.4482C223.608 37.6302 216.878 32.7219 211.47 27.6968C184.07 1.98669 94.4193 -4.90828 70.7447 16.9453C62.5728 24.3077 57.6456 27.2293 61.4912 22.2041C70.0237 11.2189 79.8781 5.49261 95.9816 2.45415L105.956 0.467452L96.3421 0.233726C90.093 0.116862 83.0026 2.10355 76.1526 5.96006ZM157.151 24.892L162.559 26.2944L156.189 29.5666C148.258 33.5399 143.331 33.6568 148.859 29.6834C152.704 26.9956 152.464 26.645 146.575 26.1775C142.97 25.9438 139.485 25.1257 138.764 24.5414C137.082 22.9053 150.541 23.1391 157.151 24.892ZM182.268 31.9038C187.195 32.7219 190.56 34.2411 189.839 35.4098C188.036 38.3314 176.86 37.8639 176.86 34.7086C176.86 32.9556 173.735 32.605 167.246 33.6568C161.357 34.5917 157.632 34.2411 157.632 32.7219C157.632 30.1509 168.688 29.6834 182.268 31.9038ZM212.552 53.2899C227.093 59.9512 235.145 69.1834 229.496 72.6894C227.213 74.0917 224.93 73.5074 222.526 70.7027C220.604 68.4823 214.354 63.6908 208.706 60.1849C203.058 56.5621 198.491 52.8225 198.491 51.7707C198.491 50.7189 196.088 48.6154 193.083 47.0962C182.388 41.7204 198.732 46.9793 212.552 53.2899ZM158.833 56.5621C183.589 61.4704 196.328 71.6376 209.427 96.997C214.114 105.996 221.685 116.747 226.252 120.837C236.587 130.07 242.836 143.976 245.239 162.324L247.042 176.348L238.269 165.83C222.406 146.898 219.882 144.911 212.071 144.794C207.865 144.678 195.367 144.444 184.07 144.093C157.151 143.392 144.532 153.676 159.675 164.077C163.881 166.999 163.881 167.349 159.675 174.127C155.709 180.438 155.228 180.672 155.228 175.997C155.228 169.686 140.446 164.895 128.189 167.115C120.377 168.518 120.377 168.518 120.017 158.818C119.536 142.808 116.291 141.405 83.7237 142.223L55.6026 143.041L44.0658 152.507C37.6965 157.649 30.8465 164.895 28.9237 168.635C20.7518 183.827 17.8675 163.259 25.3184 143.976C26.7605 140.47 27.8421 135.212 27.8421 132.173C27.8421 129.251 30.486 123.175 33.6105 118.617C36.7351 114.059 40.1 107.281 40.9412 103.541C44.186 88.9334 60.1693 75.2604 92.7368 59.0163C109.561 50.6021 126.146 50.0178 158.833 56.5621ZM222.887 80.0518C237.068 98.75 241.154 106.112 236.346 104.593C234.664 104.126 231.78 100.62 229.977 96.8802C225.29 87.4142 213.754 72.3388 212.432 73.7411C211.831 74.3254 210.028 72.2219 208.586 68.9497C203.418 57.8476 210.148 63.1065 222.887 80.0518ZM235.746 83.324C247.282 98.1657 252.21 107.982 247.643 107.164C245.239 106.697 242.355 103.191 241.033 99.3343C239.832 95.4778 236.106 88.9334 232.861 84.7263C229.737 80.5192 227.934 77.1302 229.016 77.1302C230.097 77.1302 233.102 79.9349 235.746 83.324ZM53.9202 161.155C50.7956 163.726 49.1132 165.83 50.1947 165.83C51.1561 165.947 50.9158 168.284 49.3535 171.206C47.0702 175.997 47.3105 175.88 52.4781 170.388C64.736 157.416 99.2263 158.467 108.36 172.141C112.806 178.802 114.849 193.41 111.604 195.396C110.523 196.098 109.561 199.487 109.561 202.993C109.561 215.38 89.8526 229.17 71.586 229.521C36.014 230.339 12.5798 185.814 37.5763 164.778C40.7009 162.207 42.143 161.623 40.9412 163.609C36.2544 170.972 33.8509 190.371 36.2544 200.188C40.3404 216.432 41.4219 213.978 42.9842 186.632C44.4263 159.87 45.7482 156.714 55.1219 156.598C59.0877 156.598 58.9675 157.182 53.9202 161.155ZM216.518 166.765C226.973 169.803 228.896 173.777 229.496 193.41C229.737 201.59 234.544 208.719 234.544 200.889C234.544 199.604 236.947 197.617 239.952 196.448C244.038 194.812 244.398 194.228 241.154 194.111C238.149 193.994 236.947 192.007 236.947 187.099C236.947 183.359 235.866 177.399 234.424 173.777C231.9 167.349 231.9 167.349 236.827 171.673C246.802 180.438 247.763 197.383 239.351 212.692C237.068 216.899 235.986 217.367 234.304 214.796C232.741 212.459 232.261 213.16 232.14 217.484C232.14 228.118 208.946 237.701 193.324 233.611C177.581 229.521 159.915 210.706 163.52 201.707C164.241 199.837 164.121 197.033 163.16 195.513C149.7 174.595 182.628 156.831 216.518 166.765ZM144.773 172.024C150.661 173.543 154.747 184.411 150.421 186.982C148.618 188.034 149.7 194.228 154.146 207.083C159.915 224.145 167.246 236.649 167.246 229.521C167.246 227.768 170.731 228.82 176.259 232.325C199.332 246.933 230.818 239.104 244.278 215.497L249.205 206.849L247.763 220.756C247.042 228.469 245.119 235.481 243.437 236.416C241.634 237.584 240.312 244.947 240.072 255.698C239.471 274.63 233.222 290.407 221.445 302.794C218.08 306.3 216.037 310.04 216.758 311.209C217.359 312.26 216.157 313.195 213.994 313.195C211.47 313.195 210.509 311.91 211.35 309.689C212.912 305.716 204.62 304.664 202.096 308.521C201.255 309.806 202.577 310.858 204.981 310.858C208.586 310.975 208.706 311.325 205.702 313.078C200.414 316.351 198.852 313.429 198.251 299.873C197.89 292.51 196.689 288.303 195.246 289.121C193.925 289.939 193.444 289.004 194.285 286.901C195.126 284.797 193.564 281.291 190.319 278.37C183.95 272.527 176.86 271.475 182.868 277.201C184.911 279.305 185.993 281.642 185.272 282.46C184.431 283.161 182.868 282.46 181.787 280.707C180.705 278.954 178.542 278.253 177.1 279.188C173.735 281.175 173.735 279.188 176.98 273.345C178.782 269.956 178.662 268.787 176.379 268.787C172.533 268.904 165.082 273.345 168.688 273.462C170.13 273.462 172.413 276.851 173.735 281.058C175.057 285.265 177.34 288.42 178.903 288.07C180.345 287.719 181.667 288.537 181.667 289.939C181.667 294.731 173.975 294.964 160.636 290.29C139.365 282.928 125.184 282.343 108.72 288.07C97.4237 292.043 94.2991 292.393 92.7368 289.822C90.093 285.615 92.0158 281.525 97.0632 281.175C107.158 280.357 114.008 276.149 112.686 271.241C111.845 267.969 112.806 265.982 115.931 264.93C118.334 263.996 120.978 262.359 121.699 261.308C123.021 259.438 126.867 265.515 129.751 274.046C132.154 281.642 140.086 278.954 141.889 269.839C142.73 265.281 145.254 260.84 147.296 260.139C151.623 258.503 157.872 265.281 156.189 269.839C155.468 271.358 156.67 274.046 158.713 275.682C160.876 277.435 162.439 277.669 162.439 276.266C162.439 274.981 163.039 272.293 163.761 270.423C164.602 268.436 162.679 264.58 159.554 261.775C156.43 258.737 155.589 256.984 157.632 257.568C161.117 258.62 172.053 247.05 172.053 242.142C172.053 240.857 170.611 241.791 168.808 244.129C165.683 248.336 165.323 248.219 160.396 243.428C155.468 238.636 154.747 238.519 148.018 241.908C140.326 245.765 138.404 250.089 144.412 250.089C146.455 250.089 148.018 251.257 148.018 252.543C148.018 253.945 146.936 254.413 145.494 253.478C144.172 252.66 141.408 253.244 139.485 254.88C136.601 257.217 136 256.633 136 251.842C136 247.868 134.438 245.531 131.193 244.713C128.549 244.012 126.386 241.558 126.386 239.104C126.386 229.988 120.858 228.469 116.892 236.299C112.686 244.713 108.72 245.648 107.639 238.519C106.437 231.391 116.171 219.354 122.42 220.172C126.386 220.756 127.468 219.821 126.867 216.198C125.064 204.044 125.304 199.136 128.189 190.722C131.794 179.737 131.794 179.854 128.549 180.555C123.141 181.723 123.742 175.179 129.15 173.075C136 170.388 138.163 170.271 144.773 172.024ZM28.9237 210.121C41.7825 234.312 74.9509 242.609 98.5053 227.534C106.437 222.392 107.639 222.158 106.076 225.898C101.87 236.182 101.63 247.868 105.836 252.192C108.6 255.231 109.081 257.101 107.158 258.269C105.716 259.087 105.235 261.892 106.076 264.346C107.038 267.385 106.317 268.787 103.673 268.787C101.63 268.787 99.9474 269.956 99.9474 271.241C99.9474 272.643 98.8658 272.994 97.4237 272.176C95.7412 271.241 96.1018 268.787 98.6254 265.164C102.231 259.788 102.231 259.672 96.943 261.541C93.9386 262.71 91.6553 265.281 91.8956 267.385C92.136 270.189 91.4149 270.657 89.3719 269.021C86.4877 266.683 71.4658 273.578 70.8649 277.552C69.4228 287.135 69.6632 294.146 71.3456 293.212C72.5474 292.51 72.7877 293.562 72.0667 295.549C71.2254 297.535 71.7061 299.172 73.0281 299.172C74.35 299.172 75.9123 297.886 76.5132 296.367C77.114 294.497 78.9167 295.198 81.8009 298.354C85.5263 302.561 87.329 302.911 95.7412 301.158C115.57 296.834 184.07 301.859 184.07 307.703C184.07 309.456 185.753 310.858 187.796 310.858C189.839 310.858 190.92 311.793 190.199 312.962C189.478 314.13 190.68 315.649 192.723 316.467C195.727 317.636 195.968 318.688 193.925 321.142C191.882 323.479 191.882 326.05 194.045 331.075C199.573 343.814 198.852 346.969 189.839 349.774C181.546 352.228 175.418 349.54 182.989 346.735C186.594 345.333 186.594 344.982 183.109 343.112C180.345 341.593 177.701 342.528 173.855 346.151C169.529 350.241 169.289 350.942 172.774 349.774C175.177 348.956 176.499 349.306 175.778 350.475C174.937 351.643 175.418 353.28 176.86 354.098C178.182 354.916 179.263 357.253 179.263 359.357C179.263 361.343 178.662 362.395 177.821 361.694C177.1 360.993 174.336 362.395 171.812 364.849C166.885 369.641 162.439 370.692 162.439 366.953C162.439 365.667 164.121 364.615 166.044 364.615C168.087 364.615 169.649 362.862 169.649 360.759C169.649 357.37 168.808 357.604 164.121 361.928C157.632 367.771 154.146 368.472 156.069 363.447C157.752 359.24 157.872 359.357 148.979 362.278C130.953 368.238 100.308 363.914 103.432 355.851C104.394 353.513 103.553 353.396 99.9474 355.266C97.3035 356.669 95.1404 357.019 95.1404 356.201C95.1404 355.383 93.4579 356.084 91.4149 357.72C88.1702 360.291 87.9298 359.473 89.3719 350.942C90.4535 344.398 90.093 341.243 88.2904 341.243C86.7281 341.243 85.5263 339.723 85.5263 337.854C85.5263 336.101 83.6035 332.712 81.3202 330.491C79.0368 328.271 77.3544 326.05 77.7149 325.583C79.7579 323.129 77.7149 317.87 74.7105 317.87C72.7877 317.87 71.1053 319.272 71.1053 321.025C71.1053 322.661 69.543 324.064 67.6202 324.064C65.3368 324.064 64.3754 322.311 64.8561 319.272C65.9377 312.494 61.2509 303.379 57.4053 304.898C55.7228 305.482 54.2807 304.664 54.2807 302.911C54.2807 301.158 52.4781 298.354 50.1947 296.484C46.7096 293.796 46.3491 293.796 48.0316 296.834C48.993 298.704 48.0316 298.237 45.9886 295.666C43.8254 293.095 41.4219 288.303 40.5807 285.148C39.7395 281.876 36.9754 277.902 34.3316 276.033C30.6061 273.462 30.0053 271.007 30.9667 263.645C32.529 252.777 34.4518 250.089 37.5763 254.88C39.2588 257.334 39.7395 256.633 39.2588 251.842C39.0184 247.868 37.6965 245.765 35.8939 246.349C34.0912 247.05 32.4088 244.012 31.4474 238.285C30.486 233.027 28.443 229.053 26.7605 229.053C22.1939 229.053 20.6316 221.107 20.9921 198.669C21.2325 179.036 21.2325 178.919 23.2754 191.189C24.4772 197.967 27.0009 206.499 28.9237 210.121ZM24.357 282.577C20.0307 286.667 19.4298 283.862 22.314 273.578L23.8763 267.969L25.9193 273.462C27.3614 277.435 27.0009 280.006 24.357 282.577ZM248.124 286.784C245.48 289.355 241.754 284.564 241.875 278.604L241.995 272.293L245.6 278.954C247.643 282.577 248.845 286.083 248.124 286.784ZM78.5561 337.386C77.114 339.139 76.5132 341.009 77.2342 341.71C77.9553 342.411 76.2728 343.58 73.6289 344.281C70.8649 344.865 69.3026 344.632 69.9035 343.58C70.6246 342.528 69.6632 340.074 67.7404 338.321C64.736 335.399 65.457 334.932 72.7877 334.698C79.5175 334.464 80.7193 334.932 78.5561 337.386ZM148.739 367.537C147.777 369.173 146.816 371.16 146.816 371.978C146.816 375.016 143.211 377.003 143.211 374.081C143.211 372.328 141.648 371.744 139.365 372.562C136.961 373.497 136 372.913 136.601 371.043C137.202 369.407 139.485 368.472 141.648 368.822C143.811 369.173 145.614 368.355 145.614 367.07C145.614 365.667 146.816 364.615 148.138 364.615C149.58 364.615 149.94 365.901 148.739 367.537Z" fill="#F7F9FB" stroke="#31708E" stroke-width="2" mask="url(#path-1-inside-1)"/>
<path d="M119.031 317.188L119.019 317.199C118.838 317.353 118.593 317.477 118.331 317.582C118.061 317.69 117.737 317.791 117.374 317.885C116.645 318.072 115.723 318.24 114.675 318.38C112.578 318.661 109.942 318.837 107.278 318.837H107.269L107.269 318.837C103.975 318.779 101.606 318.985 100.076 319.444C99.3123 319.673 98.799 319.953 98.4822 320.259C98.18 320.55 98.0439 320.874 98.0439 321.259C98.0439 322.005 98.3911 322.784 99.0537 323.538C99.715 324.291 100.665 324.99 101.795 325.56C104.061 326.704 106.956 327.289 109.474 326.843L109.478 326.843L109.478 326.843C110.168 326.726 110.773 326.677 111.207 326.785C111.435 326.842 111.681 326.957 111.842 327.194C112.007 327.436 112.021 327.711 111.976 327.954C111.892 328.402 111.567 328.938 111.109 329.544C110.636 330.17 109.961 330.944 109.087 331.883M119.031 317.188L108.72 331.543M119.031 317.188L119.043 317.176C119.153 317.07 119.415 316.933 119.911 316.815C120.388 316.701 121.014 316.619 121.778 316.571C123.305 316.474 125.322 316.516 127.667 316.671C132.355 316.98 138.301 317.737 144.15 318.714C149.998 319.691 155.733 320.885 159.999 322.066C162.136 322.657 163.885 323.24 165.092 323.783C165.699 324.056 166.143 324.308 166.429 324.532C166.704 324.748 166.74 324.866 166.745 324.881C166.746 324.883 166.746 324.883 166.746 324.882C166.746 325.014 166.691 325.204 166.531 325.449C166.375 325.691 166.136 325.956 165.822 326.227C165.197 326.767 164.32 327.294 163.346 327.685M119.031 317.188L163.346 327.685M109.087 331.883C109.086 331.883 109.086 331.884 109.086 331.884L108.72 331.543M109.087 331.883C109.087 331.883 109.087 331.883 109.087 331.883L108.72 331.543M109.087 331.883C108.002 333.055 107.203 333.926 106.675 334.577C106.411 334.903 106.227 335.158 106.111 335.358C106.053 335.457 106.018 335.534 105.997 335.591C105.993 335.602 105.99 335.611 105.988 335.619M108.72 331.543C104.394 336.217 104.394 336.334 108.72 336.217C111.124 336.217 117.493 337.269 122.781 338.555C128.068 339.84 138.043 340.541 144.893 340.191M105.988 335.619C105.967 335.611 105.951 335.603 105.941 335.597C105.94 335.596 105.941 335.597 105.943 335.6C105.951 335.611 105.975 335.643 105.975 335.677C105.975 335.677 105.975 335.67 105.978 335.656C105.98 335.646 105.983 335.634 105.988 335.619ZM105.988 335.619C106.05 335.644 106.161 335.674 106.349 335.698C106.843 335.759 107.61 335.747 108.707 335.718L108.72 335.717V335.717C111.188 335.717 117.607 336.782 122.899 338.069C128.126 339.34 138.046 340.04 144.863 339.692M144.863 339.692C144.861 339.692 144.86 339.692 144.858 339.692L144.893 340.191M144.863 339.692C144.864 339.692 144.866 339.692 144.867 339.691L144.893 340.191M144.863 339.692C149.836 339.342 153.092 339.305 155.216 339.776C156.291 340.014 157.118 340.39 157.736 340.956C158.358 341.525 158.728 342.246 158.956 343.099C158.956 343.1 158.956 343.1 158.956 343.1L158.473 343.229C157.632 340.074 154.868 339.49 144.893 340.191M163.346 327.685C162.229 328.071 161.283 328.804 160.629 329.662C159.977 330.518 159.585 331.542 159.657 332.514L159.658 332.532L159.66 332.549C160.073 335.412 159.926 339.042 159.541 341.456C159.446 342.057 159.337 342.573 159.221 342.977C159.167 343.169 159.113 343.325 159.064 343.447L163.346 327.685ZM160.155 332.478C160.035 330.842 161.477 328.855 163.52 328.154C165.563 327.336 167.246 325.933 167.246 324.882C167.246 321.142 122.06 313.546 118.695 316.818L160.155 332.478Z" fill="#F7F9FB" stroke="#31708E"/>
</g>
<defs>
<filter id="filter0_i" x="0.933273" y="0.228851" width="271.906" height="397.72" filterUnits="userSpaceOnUse" color-interpolation-filters="sRGB">
<feFlood flood-opacity="0" result="BackgroundImageFix"/>
<feBlend mode="normal" in="SourceGraphic" in2="BackgroundImageFix" result="shape"/>
<feColorMatrix in="SourceAlpha" type="matrix" values="0 0 0 0 0 0 0 0 0 0 0 0 0 0 0 0 0 0 127 0" result="hardAlpha"/>
<feOffset dy="4"/>
<feGaussianBlur stdDeviation="2"/>
<feComposite in2="hardAlpha" operator="arithmetic" k2="-1" k3="1"/>
<feColorMatrix type="matrix" values="0 0 0 0 0.192157 0 0 0 0 0.439216 0 0 0 0 0.556863 0 0 0 1 0"/>
<feBlend mode="normal" in2="shape" result="effect1_innerShadow"/>
</filter>
</defs>
</svg>
